<svg width="32" height="32" viewBox="0 0 32 32" xmlns="http://www.w3.org/2000/svg">
  <defs>
    <linearGradient id="brainGradient" x1="0%" y1="0%" x2="100%" y2="100%">
      <stop offset="0%" style="stop-color:#8B5CF6;stop-opacity:1" />
      <stop offset="100%" style="stop-color:#3B82F6;stop-opacity:1" />
    </linearGradient>
  </defs>
  <rect width="32" height="32" rx="6" fill="url(#brainGradient)"/>
  <path d="M8 12c0-2.21 1.79-4 4-4s4 1.79 4 4c0 1.1-.45 2.1-1.17 2.83L16 16l1.17-1.17C16.45 14.1 16 13.1 16 12c0-2.21 1.79-4 4-4s4 1.79 4 4-1.79 4-4 4h-8c-2.21 0-4-1.79-4-4zm0 8c0-2.21 1.79-4 4-4h8c2.21 0 4 1.79 4 4s-1.79 4-4 4-4-1.79-4-4c0-1.1.45-2.1 1.17-2.83L16 18l-1.17 1.17C15.55 18.9 16 19.9 16 20c0 2.21-1.79 4-4 4s-4-1.79-4-4z" fill="white"/>
</svg> 